<svg xmlns="http://www.w3.org/2000/svg" viewBox="0 0 400 520" width="400" height="520">
  <defs>
    <linearGradient id="bodyGrad" x1="0" y1="0" x2="0" y2="1">
      <stop offset="0%" stop-color="#FF8088"/>
      <stop offset="55%" stop-color="#FF5F6D"/>
      <stop offset="100%" stop-color="#E9485A"/>
    </linearGradient>
    <linearGradient id="legGrad" x1="0" y1="0" x2="0" y2="1">
      <stop offset="0%" stop-color="#F0525F"/>
      <stop offset="100%" stop-color="#FF6B77"/>
    </linearGradient>
    <radialGradient id="faceGrad" cx="0.45" cy="0.38" r="0.65">
      <stop offset="0%" stop-color="#FFFAF4"/>
      <stop offset="100%" stop-color="#FCE6DA"/>
    </radialGradient>
    <linearGradient id="camGrad" x1="0" y1="0" x2="0" y2="1">
      <stop offset="0%" stop-color="#7BE6D6"/>
      <stop offset="100%" stop-color="#3CC6B4"/>
    </linearGradient>
    <radialGradient id="eyeGrad" cx="0.5" cy="0.3" r="0.75">
      <stop offset="0%" stop-color="#2C3E63"/>
      <stop offset="100%" stop-color="#17233C"/>
    </radialGradient>
    <radialGradient id="lensGlass" cx="0.35" cy="0.35" r="0.6">
      <stop offset="0%" stop-color="#8FD9FF" stop-opacity="0.95"/>
      <stop offset="60%" stop-color="#3B6A9E" stop-opacity="0.55"/>
      <stop offset="100%" stop-color="#17233C" stop-opacity="0"/>
    </radialGradient>
    <radialGradient id="cheekGrad" cx="0.5" cy="0.5" r="0.5">
      <stop offset="0%" stop-color="#FF8A94" stop-opacity="0.7"/>
      <stop offset="100%" stop-color="#FF8A94" stop-opacity="0"/>
    </radialGradient>
  </defs>
  <g transform="translate(0 16)">
  <ellipse cx="200" cy="454" rx="92" ry="11" fill="#17233C" opacity="0.12"/>
  <rect x="148" y="360" width="50" height="92" rx="25" fill="url(#legGrad)" stroke="#17233C" stroke-width="5"/>
  <rect x="202" y="360" width="50" height="92" rx="25" fill="url(#legGrad)" stroke="#17233C" stroke-width="5"/>
  <path d="M 200 50 C 124 50, 66 108, 66 190 C 66 262, 108 318, 156 370 C 174 390, 187 408, 193 418 Q 200 430 207 418 C 213 408, 226 390, 244 370 C 292 318, 334 262, 334 190 C 334 108, 276 50, 200 50 Z" fill="url(#bodyGrad)" stroke="#17233C" stroke-width="6" stroke-linejoin="round"/>
  <ellipse cx="116" cy="108" rx="26" ry="13" fill="#FFF9F2" opacity="0.45" transform="rotate(-32 116 108)"/>
  <circle cx="146" cy="96" r="5" fill="#FFF9F2" opacity="0.45"/>
  <ellipse cx="196" cy="190" rx="104" ry="100" fill="url(#faceGrad)"/>
  <path d="M 130 186 Q 150 164 170 186" fill="none" stroke="#17233C" stroke-width="7" stroke-linecap="round"/>
  <ellipse cx="128" cy="222" rx="22" ry="14" fill="url(#cheekGrad)"/>
  <path d="M 160 250 Q 172 259 184 250" fill="none" stroke="#17233C" stroke-width="5" stroke-linecap="round"/>
  <g transform="translate(246 196) rotate(-6) scale(1.02)">
    <rect x="-48" y="-54" width="30" height="18" rx="5" fill="url(#camGrad)" stroke="#17233C" stroke-width="5"/>
    <rect x="-62" y="-42" width="124" height="84" rx="17" fill="url(#camGrad)" stroke="#17233C" stroke-width="5"/>
    <path d="M -62 -18 L 62 -18" stroke="#17233C" stroke-width="3" opacity="0.18"/>
    <circle cx="0" cy="4" r="31" fill="#17233C"/>
    <circle cx="0" cy="4" r="23" fill="#24365A"/>
    <circle cx="0" cy="4" r="16" fill="url(#lensGlass)"/>
    <ellipse cx="-8" cy="-5" rx="7" ry="4.5" fill="#FFFFFF" opacity="0.9"/>
    <circle cx="42" cy="-26" r="6.5" fill="#FFC857" stroke="#17233C" stroke-width="2.5"/>
  </g>
  <ellipse cx="186" cy="236" rx="25" ry="20" transform="rotate(-10 186 236)" fill="#FF6470" stroke="#17233C" stroke-width="5"/>
  <ellipse cx="304" cy="214" rx="25" ry="20" transform="rotate(30 304 214)" fill="#FF6470" stroke="#17233C" stroke-width="5"/>
  <path d="M 332 82 Q 334.5 93.5 346 96 Q 334.5 98.5 332 110 Q 329.5 98.5 318 96 Q 329.5 93.5 332 82 Z" fill="#FFC857"/>
  <path d="M 360 128.3 Q 361.375 134.625 367.7 136 Q 361.375 137.375 360 143.7 Q 358.625 137.375 352.3 136 Q 358.625 134.625 360 128.3 Z" fill="#FFC857"/>
  </g>
</svg>
