<svg xmlns="http://www.w3.org/2000/svg" viewBox="0 0 400 520" width="400" height="520">
  <defs>
    <linearGradient id="bodyGrad" x1="0" y1="0" x2="0" y2="1">
      <stop offset="0%" stop-color="#FF8088"/>
      <stop offset="55%" stop-color="#FF5F6D"/>
      <stop offset="100%" stop-color="#E9485A"/>
    </linearGradient>
    <linearGradient id="legGrad" x1="0" y1="0" x2="0" y2="1">
      <stop offset="0%" stop-color="#F0525F"/>
      <stop offset="100%" stop-color="#FF6B77"/>
    </linearGradient>
    <radialGradient id="faceGrad" cx="0.45" cy="0.38" r="0.65">
      <stop offset="0%" stop-color="#FFFAF4"/>
      <stop offset="100%" stop-color="#FCE6DA"/>
    </radialGradient>
    <linearGradient id="camGrad" x1="0" y1="0" x2="0" y2="1">
      <stop offset="0%" stop-color="#7BE6D6"/>
      <stop offset="100%" stop-color="#3CC6B4"/>
    </linearGradient>
    <radialGradient id="eyeGrad" cx="0.5" cy="0.3" r="0.75">
      <stop offset="0%" stop-color="#2C3E63"/>
      <stop offset="100%" stop-color="#17233C"/>
    </radialGradient>
    <radialGradient id="lensGlass" cx="0.35" cy="0.35" r="0.6">
      <stop offset="0%" stop-color="#8FD9FF" stop-opacity="0.95"/>
      <stop offset="60%" stop-color="#3B6A9E" stop-opacity="0.55"/>
      <stop offset="100%" stop-color="#17233C" stop-opacity="0"/>
    </radialGradient>
    <radialGradient id="cheekGrad" cx="0.5" cy="0.5" r="0.5">
      <stop offset="0%" stop-color="#FF8A94" stop-opacity="0.7"/>
      <stop offset="100%" stop-color="#FF8A94" stop-opacity="0"/>
    </radialGradient>
  </defs>
  <g transform="translate(0 16)">
  <ellipse cx="200" cy="454" rx="92" ry="11" fill="#17233C" opacity="0.12"/>
  <rect x="148" y="360" width="50" height="92" rx="25" fill="url(#legGrad)" stroke="#17233C" stroke-width="5"/>
  <rect x="202" y="360" width="50" height="92" rx="25" fill="url(#legGrad)" stroke="#17233C" stroke-width="5"/>
  <path d="M 200 50 C 124 50, 66 108, 66 190 C 66 262, 108 318, 156 370 C 174 390, 187 408, 193 418 Q 200 430 207 418 C 213 408, 226 390, 244 370 C 292 318, 334 262, 334 190 C 334 108, 276 50, 200 50 Z" fill="url(#bodyGrad)" stroke="#17233C" stroke-width="6" stroke-linejoin="round"/>
  <ellipse cx="122" cy="104" rx="26" ry="13" fill="#FFF9F2" opacity="0.45" transform="rotate(-32 122 104)"/>
  <circle cx="152" cy="92" r="5" fill="#FFF9F2" opacity="0.45"/>
  <ellipse cx="200" cy="186" rx="104" ry="100" fill="url(#faceGrad)"/>
  <ellipse cx="158" cy="178" rx="22" ry="23.76" fill="url(#eyeGrad)"/>
  <circle cx="164.6" cy="170.08" r="7.92" fill="#FFFFFF"/>
  <circle cx="150.52" cy="185.92" r="3.74" fill="#FFFFFF" opacity="0.9"/>
  <circle cx="167.24" cy="184.6" r="2.2" fill="#FFFFFF" opacity="0.8"/>
  <ellipse cx="242" cy="178" rx="22" ry="23.76" fill="url(#eyeGrad)"/>
  <circle cx="248.6" cy="170.08" r="7.92" fill="#FFFFFF"/>
  <circle cx="234.52" cy="185.92" r="3.74" fill="#FFFFFF" opacity="0.9"/>
  <circle cx="251.24" cy="184.6" r="2.2" fill="#FFFFFF" opacity="0.8"/>
  <ellipse cx="126" cy="212" rx="22" ry="14" fill="url(#cheekGrad)"/>
  <ellipse cx="274" cy="212" rx="22" ry="14" fill="url(#cheekGrad)"/>
  <clipPath id="mouthClip"><path d="M 188 210 Q 200 212 212 210 Q 211 226 200 226 Q 189 226 188 210 Z"/></clipPath>
  <path d="M 188 210 Q 200 212 212 210 Q 211 226 200 226 Q 189 226 188 210 Z" fill="#17233C" stroke="#17233C" stroke-width="3" stroke-linejoin="round"/>
  <ellipse cx="200" cy="226" rx="7.4399999999999995" ry="6.72" fill="#FF7A85" clip-path="url(#mouthClip)"/>
  <g transform="translate(200 312) rotate(-4)">
    <path d="M -84 -44 L -28 -52 L 28 -44 L 84 -52 L 84 46 L 28 54 L -28 46 L -84 54 Z" fill="#FFF9F2" stroke="#17233C" stroke-width="5" stroke-linejoin="round"/>
    <path d="M -28 -52 L -28 46 M 28 -44 L 28 54" stroke="#17233C" stroke-width="2.5" opacity="0.18"/>
    <path d="M -66 30 Q -40 -4 -8 16 Q 20 34 44 -8" fill="none" stroke="#3CC6B4" stroke-width="5" stroke-linecap="round" stroke-dasharray="2 10"/>
    <g transform="translate(50 -20)">
      <path d="M 0 -16 C -9 -16, -14 -9, -14 -2 C -14 8, 0 18, 0 18 C 0 18, 14 8, 14 -2 C 14 -9, 9 -16, 0 -16 Z" fill="#FF5F6D" stroke="#17233C" stroke-width="3"/>
      <circle cx="0" cy="-3" r="4.5" fill="#FFF9F2"/>
    </g>
    <path d="M -58 -22 l 3 7 l 7 1 l -5 5 l 1.5 7 l -6.5 -3.5 l -6.5 3.5 l 1.5 -7 l -5 -5 l 7 -1 z" fill="#FFC857"/>
  </g>
  <ellipse cx="116" cy="300" rx="25" ry="20" transform="rotate(-20 116 300)" fill="#FF6470" stroke="#17233C" stroke-width="5"/>
  <ellipse cx="284" cy="300" rx="25" ry="20" transform="rotate(20 284 300)" fill="#FF6470" stroke="#17233C" stroke-width="5"/>
  </g>
</svg>
