<svg xmlns="http://www.w3.org/2000/svg" viewBox="0 0 400 520" width="400" height="520">
  <defs>
    <linearGradient id="bodyGrad" x1="0" y1="0" x2="0" y2="1">
      <stop offset="0%" stop-color="#FF7A85"/>
      <stop offset="55%" stop-color="#FF5F6D"/>
      <stop offset="100%" stop-color="#E24352"/>
    </linearGradient>
    <linearGradient id="bagGrad" x1="0" y1="0" x2="0" y2="1">
      <stop offset="0%" stop-color="#5BE0D0"/>
      <stop offset="100%" stop-color="#38C4B4"/>
    </linearGradient>
    <radialGradient id="lensGrad" cx="0.35" cy="0.35" r="0.75">
      <stop offset="0%" stop-color="#2E3F5E"/>
      <stop offset="70%" stop-color="#17233C"/>
      <stop offset="100%" stop-color="#0B1424"/>
    </radialGradient>
    <radialGradient id="lensGlass" cx="0.35" cy="0.35" r="0.55">
      <stop offset="0%" stop-color="#8FD9FF" stop-opacity="0.9"/>
      <stop offset="60%" stop-color="#3B6A9E" stop-opacity="0.5"/>
      <stop offset="100%" stop-color="#17233C" stop-opacity="0"/>
    </radialGradient>
    <radialGradient id="cheekGrad" cx="0.5" cy="0.5" r="0.5">
      <stop offset="0%" stop-color="#FFB4A8" stop-opacity="0.85"/>
      <stop offset="100%" stop-color="#FFB4A8" stop-opacity="0"/>
    </radialGradient>
  </defs>
  <ellipse cx="200" cy="490" rx="95" ry="12" fill="#17233C" opacity="0.12"/>
  <path d="M 210 60 C 130 60, 75 120, 75 210 C 75 270, 100 315, 135 345 C 160 365, 178 390, 190 430 C 195 445, 198 468, 200 480 C 202 468, 208 445, 218 430 C 235 390, 258 365, 290 345 C 320 315, 340 270, 340 205 C 340 120, 285 60, 210 60 Z" fill="url(#bodyGrad)" stroke="#17233C" stroke-width="6" stroke-linejoin="round"/>
  <ellipse cx="230" cy="215" rx="70" ry="80" fill="#FFF9F2" opacity="0.5"/>
  <ellipse cx="265" cy="205" rx="12" ry="15" fill="#17233C"/>
  <circle cx="269" cy="200" r="4" fill="#FFF9F2"/>
  <circle cx="298" cy="230" r="13" fill="url(#cheekGrad)"/>
  <path d="M 285 250 Q 295 256 305 250" fill="none" stroke="#17233C" stroke-width="4" stroke-linecap="round"/>
  <path d="M 110 310 Q 95 335 115 350" fill="#FF5F6D" stroke="#17233C" stroke-width="5" stroke-linejoin="round"/>
  <path d="M 260 320 Q 285 335 275 360" fill="#FF5F6D" stroke="#17233C" stroke-width="5" stroke-linejoin="round"/>
  <g transform="translate(220 335) scale(1.3)">
    <path d="M -55 -35 Q -30 -55 0 -50 Q 30 -55 55 -35" fill="none" stroke="#17233C" stroke-width="5" stroke-linecap="round"/>
    <rect x="-38" y="-30" width="76" height="52" rx="10" fill="url(#bagGrad)" stroke="#17233C" stroke-width="4"/>
    <circle cx="0" cy="0" r="22" fill="url(#lensGrad)" stroke="#17233C" stroke-width="3.5"/>
    <circle cx="0" cy="0" r="15" fill="none" stroke="#45D6C6" stroke-width="1.5" opacity="0.5"/>
    <circle cx="0" cy="0" r="12" fill="url(#lensGlass)"/>
    <ellipse cx="-4" cy="-5" rx="4" ry="3" fill="#FFF9F2" opacity="0.9"/>
  </g>
  <ellipse cx="160" cy="120" rx="28" ry="16" fill="#FFF9F2" opacity="0.3" transform="rotate(-25 160 120)"/>
  <ellipse cx="184" cy="480" rx="10" ry="6" fill="#17233C"/>
  <ellipse cx="216" cy="480" rx="10" ry="6" fill="#17233C"/>
</svg>